PathFileType	4	(X/Y/Z)	/Users/niels/Desktop/University/Third Semester/Perception and Action/Exam/Gymnastics Motion Tracking/Code for Gym Tracking/Analyzed Data/Webcam_Backflip/id13_2_trajectory_Sports2D/id13_2_trajectory_Sports2D_px_person00.trc
DataRate	CameraRate	NumFrames	NumMarkers	Units	OrigDataRate	OrigDataStartFrame	OrigNumFrames
29.714285714285715	29.714285714285715	12	22	m	29.714285714285715	91	105
Frame#	Time	Hip			RHip			RKnee			RAnkle			RBigToe			RSmallToe			RHeel			LHip			LKnee			LAnkle			LBigToe			LSmallToe			LHeel			Neck			Head			Nose			RShoulder			RElbow			RWrist			LShoulder			LElbow			LWrist		
		X1	Y1	Z1	X2	Y2	Z2	X3	Y3	Z3	X4	Y4	Z4	X5	Y5	Z5	X6	Y6	Z6	X7	Y7	Z7	X8	Y8	Z8	X9	Y9	Z9	X10	Y10	Z10	X11	Y11	Z11	X12	Y12	Z12	X13	Y13	Z13	X14	Y14	Z14	X15	Y15	Z15	X16	Y16	Z16	X17	Y17	Z17	X18	Y18	Z18	X19	Y19	Z19	X20	Y20	Z20	X21	Y21	Z21	X22	Y22	Z22
91	3.0625	0.8895255883045062	-0.652255012678118	0.0	0.8479383690184414	-0.6447668634862749	0.0	0.7836183058471246	-0.8652397335816477	0.0	0.694217106988066	-1.0614758585252044	0.0	0.7201630483062544	-1.1052149431756761	0.0	0.6876812888036065	-1.1029261027224906	0.0	0.6826481394449757	-1.0747741147776397	0.0	0.9331312089872352	-0.6574755654148344	0.0	0.9400684734599746	-0.8789030410968408	0.0	0.9274844659782037	-1.0644166229453302	0.0	0.9706460170514887	-1.093099163681005	0.0	0.9718207202774721	-1.0915956439484318	0.0	0.9099812298605524	-1.0755418620521313	0.0	0.965307577007115	-0.32339933884886707	0.0	1.0347363105496319	-0.19408025868361145	0.0	1.0192971184258526	-0.2795960107760099	0.0	0.8855445008660963	-0.35712300695925714	0.0	0.8230619284304882	-0.5123859309839058	0.0	0.911418581631471	-0.637728874595711	0.0	0.9882599001303478	-0.3870300674383573	0.0	0.9673924745047554	-0.5246734590817046	0.0	1.024526573257301	-0.6321834378990681	0.0
92	3.096153846153846	0.8870929141807428	-0.6533736421917129	0.0	0.8454832708871929	-0.6450488982279777	0.0	0.7805506258160727	-0.8659031172715573	0.0	0.6918300815614904	-1.0616085410327976	0.0	0.7224435281470861	-1.1055553811627101	0.0	0.6886584992108593	-1.10422497779514	0.0	0.6802167420545557	-1.0747515346000678	0.0	0.9309871317823244	-0.6574993656478741	0.0	0.9393670914334395	-0.8780043486703651	0.0	0.9272692142104374	-1.0641973135369096	0.0	0.9708388463009978	-1.092758518301973	0.0	0.9722419552963432	-1.0918958280436324	0.0	0.9098592285085835	-1.0756308812433082	0.0	0.963691855962438	-0.32414427903205684	0.0	1.0342623595288278	-0.19498320123835833	0.0	1.0181424602855285	-0.28047596252658163	0.0	0.8841336804238921	-0.35687483688044136	0.0	0.8194588469939742	-0.511452610812622	0.0	0.9063508864477119	-0.6385759145617117	0.0	0.9849672670577309	-0.38761481462390823	0.0	0.9638160154338238	-0.5245379399962653	0.0	1.0246840496182732	-0.6302198471852031	0.0
93	3.129807692307692	0.8856132236506762	-0.6542739726021233	0.0	0.8439508897003585	-0.6451358881768345	0.0	0.7777838468938536	-0.8661949020019103	0.0	0.6893670722044606	-1.0617373371944538	0.0	0.7242116602141714	-1.1057173242171328	0.0	0.6896653843683593	-1.1054017418775177	0.0	0.6777472117755622	-1.0746535354840938	0.0	0.9297451829762747	-0.6574780232133849	0.0	0.9392892819051564	-0.8771479416097324	0.0	0.9273657332483457	-1.0641678891354924	0.0	0.971178472433621	-1.0924001757315025	0.0	0.9727217460963065	-1.092133358544352	0.0	0.9097982273918206	-1.0756106893977753	0.0	0.96277350439465	-0.324840131911033	0.0	1.03420540107035	-0.19567704001061484	0.0	1.0175907351507716	-0.2811405899107363	0.0	0.8837752568465412	-0.3569239306116393	0.0	0.8177363083775435	-0.5107914909070441	0.0	0.9028512705721544	-0.6400036323895165	0.0	0.982202282570778	-0.38798093212343593	0.0	0.9607650738539838	-0.5243600151986761	0.0	1.0245115624794572	-0.6286559501819129	0.0
94	3.1634615384615383	0.8851245257481054	-0.6548932635399385	0.0	0.8434631194948911	-0.6451488458325814	0.0	0.7756865700519162	-0.8661483601286718	0.0	0.6871946049185341	-1.0618986626275793	0.0	0.725352211184627	-1.1057141833955437	0.0	0.6906196164981915	-1.1063263092889495	0.0	0.6755705264748597	-1.074525284386375	0.0	0.929446500927937	-0.657537104883019	0.0	0.9398855663861586	-0.8763706472110093	0.0	0.9280775330511538	-1.064355106136459	0.0	0.972019877345468	-1.0920609302669777	0.0	0.9734214572029577	-1.0922841143809332	0.0	0.9100480225176589	-1.0755153127709973	0.0	0.962572203639358	-0.32547218497004504	0.0	1.0345404264580893	-0.19622271576037134	0.0	1.0177346944551604	-0.28164505875132734	0.0	0.8845294223852939	-0.3572477286287377	0.0	0.8181476036133722	-0.5104684054821184	0.0	0.9013434156105072	-0.6419213282686662	0.0	0.9801084159165926	-0.38820352757525806	0.0	0.95849578756685	-0.5243037526441054	0.0	1.0242269310940726	-0.6275479464901963	0.0
95	3.1971153846153846	0.885725981964336	-0.6552000238256255	0.0	0.8441251349620996	-0.6451492358110681	0.0	0.7746293326881966	-0.865904365622586	0.0	0.6855980126002711	-1.0620849144260651	0.0	0.7257355953064757	-1.1055655550112888	0.0	0.6913353469791075	-1.106754087665907	0.0	0.6738803781088282	-1.0743849206852616	0.0	0.930124563023774	-0.6576839153334884	0.0	0.9411182826958727	-0.8757168268794524	0.0	0.929701591691756	-1.0646653513787474	0.0	0.9737576569099188	-1.0916952844195014	0.0	0.9745315945681606	-1.0922980756922112	0.0	0.9108982091662527	-1.0753449598975666	0.0	0.9630580226302928	-0.3260081250854235	0.0	1.0352283533323183	-0.1966090517254143	0.0	1.0186091633292431	-0.28203202897331564	0.0	0.8864098063200315	-0.3577229468070268	0.0	0.8207198951692275	-0.5105423173899228	0.0	0.9018943864194577	-0.6442183770418364	0.0	0.9788043782389411	-0.38829008537671145	0.0	0.9571420962853536	-0.5245469312360073	0.0	1.0240774288069885	-0.6268576639016042	0.0
96	3.230769230769231	0.8875837203301937	-0.6551674975062545	0.0	0.8460307740431529	-0.6451849812460179	0.0	0.7750668228421896	-0.8656801180837501	0.0	0.6848325728219211	-1.0622668692426471	0.0	0.7253001592602154	-1.1053194631614356	0.0	0.6917223906540729	-1.1064710724811955	0.0	0.6727932364178065	-1.0742156569096313	0.0	0.9318092154440697	-0.6578499430278738	0.0	0.9428191624359288	-0.8752916092132625	0.0	0.932357356170509	-1.0650414314221386	0.0	0.9766757700952051	-1.0913418066535396	0.0	0.9762172198433613	-1.092179661669975	0.0	0.9125631572876219	-1.075159080696731	0.0	0.9641435820162622	-0.3264510078164731	0.0	1.0361402022888127	-0.19676750446242972	0.0	1.0201425383818643	-0.28226930239298276	0.0	0.8893355488248754	-0.35816167313559705	0.0	0.8252396319598129	-0.511013946641795	0.0	0.9042711004324714	-0.6466736142832639	0.0	0.9783548130051057	-0.38819631926740045	0.0	0.9567424266480907	-0.525145734165777	0.0	1.0243481751270607	-0.6264155192705253	0.0
97	3.2644230769230766	0.890829155496885	-0.6547542270787184	0.0	0.8492894994895885	-0.6452399008949753	0.0	0.7777333001533093	-0.8656603487416659	0.0	0.6851979339185608	-1.0623819121109115	0.0	0.7241985494127535	-1.1050124879410024	0.0	0.6919302229756875	-1.1053857337626605	0.0	0.6724519189824836	-1.0739312141096848	0.0	0.9345272423929484	-0.6579032342255328	0.0	0.944740720375919	-0.8752339343312866	0.0	0.9357863524510062	-1.0655102155383631	0.0	0.98063215531506	-1.091149070010668	0.0	0.9783710665964068	-1.0919497314244226	0.0	0.9149525065885996	-1.075040287353268	0.0	0.9656751374922351	-0.32681413192264913	0.0	1.037040080816178	-0.19663677488282943	0.0	1.0221023779014662	-0.2822556128696237	0.0	0.8930889127768291	-0.35839163824635034	0.0	0.8312335890180677	-0.5117709244034232	0.0	0.9079611668344092	-0.6489969938573039	0.0	0.9786422133789295	-0.3878560786234522	0.0	0.9572286811570189	-0.5259973534293487	0.0	1.0253251249339272	-0.6259589939302123	0.0
98	3.298076923076923	0.8954580011869966	-0.6539085573870684	0.0	0.8540262741622356	-0.6451981290132344	0.0	0.7837970973302231	-0.8659260169973922	0.0	0.6871582888926893	-1.0623081700270391	0.0	0.7230548019305805	-1.1046558664792803	0.0	0.692514586784932	-1.1035854026291336	0.0	0.6732169369926553	-1.0733607814359094	0.0	0.9382389514518987	-0.6576520369232942	0.0	0.9466451732199709	-0.875552753833105	0.0	0.939011283107324	-1.0660619229146557	0.0	0.9846326939527955	-1.0913451230872246	0.0	0.9801649918348105	-1.0916111590304416	0.0	0.9172806412686082	-1.0749620347277333	0.0	0.9674364500738968	-0.3270534602587572	0.0	1.0376758985122516	-0.1962112287240552	0.0	1.0241296431489328	-0.2819069080502564	0.0	0.8973198366982725	-0.35833565291642144	0.0	0.8380338029373177	-0.512595797434636	0.0	0.9122205075130934	-0.6509965609829083	0.0	0.979348082261471	-0.3871859736026956	0.0	0.958421751213872	-0.5269030132357173	0.0	1.0272429275273531	-0.6252303264298326	0.0
99	3.331730769230769	0.9012972277783382	-0.6525423791301381	0.0	0.8603611164067024	-0.6448987823747229	0.0	0.7948000227205249	-0.8664258566421214	0.0	0.6914865554052012	-1.0618564671232342	0.0	0.723300550991709	-1.1042900986982298	0.0	0.6947066576749223	-1.10138990793477	0.0	0.6759181117304881	-1.072210506097949	0.0	0.9427697752045455	-0.6568538492563437	0.0	0.9483412995573861	-0.8760064571032545	0.0	0.9399091721428191	-1.0664909095649653	0.0	0.9863654236097908	-1.092226570858386	0.0	0.9795717091827153	-1.091216887597418	0.0	0.9176221160194062	-1.074708174028186	0.0	0.9691735918864405	-0.3270615561999965	0.0	1.0378661015292046	-0.1955396481927806	0.0	1.0258583958129022	-0.2812202708540419	0.0	0.9015853778786982	-0.3580319523927501	0.0	0.8449234279795189	-0.5132636282820026	0.0	0.9162112660806645	-0.6526606963329864	0.0	0.9801008634743834	-0.38610159450778153	0.0	0.960105867900432	-0.5276735709917046	0.0	1.0302625490985682	-0.624028616809668	0.0
100	3.3653846153846154	0.9079863707114685	-0.6505433585156016	0.0	0.8683427871408308	-0.6442490334263542	0.0	0.8123060878311134	-0.8669878589500547	0.0	0.6993033421840651	-1.060840770174185	0.0	0.7274428349445575	-1.1040089181682093	0.0	0.7006548409656518	-1.0993687235789185	0.0	0.6819931736879851	-1.0700736209150166	0.0	0.9477984980872461	-0.6552945359883088	0.0	0.9496513089305372	-0.8762013884399383	0.0	0.9349303925187648	-1.0663574609687934	0.0	0.9818814460412478	-1.0941669986784133	0.0	0.9730673920993583	-1.0909413695815158	0.0	0.9126647791312194	-1.0739210808599826	0.0	0.9706466404643876	-0.32673111081875506	0.0	1.0375114346037546	-0.1946992307798021	0.0	1.027013196364553	-0.28027103677754833	0.0	0.9054251225392611	-0.35758122648000423	0.0	0.8512527126568415	-0.5136304044313257	0.0	0.9191605970844905	-0.6540825030348482	0.0	0.9806197229585921	-0.38455930447072545	0.0	0.9621503253993412	-0.528201490891021	0.0	1.0344628585870839	-0.622183009864715	0.0
101	3.3990384615384612	0.9149862285386492	-0.6478765084424986	0.0	0.8778552456783539	-0.6432927960236853	0.0	0.837290512999341	-0.86738736404714	0.0	0.7118267573940743	-1.0592084642433544	0.0	0.7387577583905158	-1.1039235152125075	0.0	0.7132243692073108	-1.0982170886934073	0.0	0.693310558095609	-1.066573003919509	0.0	0.9528615649171309	-0.6529045043116072	0.0	0.950376667509133	-0.8757413887847958	0.0	0.9192633553300389	-1.0651172355152299	0.0	0.9657584556691917	-1.0975720114495988	0.0	0.9557723516701233	-1.0910674638388467	0.0	0.897896228865938	-1.0722136836057106	0.0	0.9716753708834652	-0.3260356537350219	0.0	1.0365939244967495	-0.1937790365323827	0.0	1.0274139549555035	-0.2792099597900333	0.0	0.9084719256607541	-0.3570837012946793	0.0	0.8564912813992437	-0.5136769451237175	0.0	0.9204966373970744	-0.6553510508703888	0.0	0.9807546545705581	-0.38259456551538	0.0	0.9645538645591896	-0.5284588335523877	0.0	1.0397978100700431	-0.6195215115047471	0.0
102	3.4326923076923075	0.9217395820718506	-0.644651349774192	0.0	0.8886118346510978	-0.6421636525779675	0.0	0.8695075601144314	-0.8674373750961748	0.0	0.7297753201600176	-1.0571103518037503	0.0	0.7599264142460643	-1.1040957947335412	0.0	0.7348468832068027	-1.0984434056020582	0.0	0.711503332038052	-1.0615272475766615	0.0	0.9574642797187985	-0.649778474236195	0.0	0.9503306975396727	-0.874320527995429	0.0	0.8880372354098102	-1.0623433079702318	0.0	0.9323300993580068	-1.1026828133254536	0.0	0.9225660634982322	-1.0918751588188778	0.0	0.8687199419246441	-1.0692570561750832	0.0	0.9721714182189971	-0.32503674092072954	0.0	1.0351859110660764	-0.19286575016492694	0.0	1.0269948194035972	-0.27825085773913183	0.0	0.9105461200855608	-0.3566090380922151	0.0	0.8603364564634981	-0.51352956627256	0.0	0.9199885309684941	-0.6565318370769377	0.0	0.9804753050736692	-0.3802837073873986	0.0	0.9673852847830988	-0.5284398958324222	0.0	1.0460681480902072	-0.615918512574298	0.0
